<svg fill="none" viewBox="0 0 192 191" xmlns="http://www.w3.org/2000/svg"><path d="m92.2266.136307c-6.8854.328476-12.6358 1.164593-19.2673 2.821933-21.8363 5.46467-41.3427 18.73816-54.3967 37.02846-15.57813 21.8288-21.29859 49.3165-15.71255 75.4003 6.7361 31.43 28.67695 57.32 58.45925 68.981 5.3769 2.105 10.1863 3.538 15.4587 4.613 17.2061 3.494 34.009 2.449 50.334-3.105 17.61-6.002 33.322-17.23 44.673-31.893 5.482-7.092 9.754-14.542 13.084-22.844 7.095-17.693 8.753-36.9535 4.81-55.4677-6.064-28.3536-24.719-52.5415-50.514-65.4567-6.228-3.12053-14.936-6.31574-20.566-7.54005-7.588-1.6424-12.009-2.239629-18.8197-2.553182-3.5846-.1642299-3.8983-.1642299-7.5427.014939zm10.3054.656952c1.688.119445 3.6.283691 4.257.358341 4.615.55244 5.213.76147 2.091.76147-5.69.01494-11.7394 1.28406-17.9976 3.76257-2.1209.83612-5.7653 2.59797-7.5426 3.62819l-1.1949.70177-4.3314-.23892c-11.9936-.67188-21.463.23892-26.8698 2.58302-1.3591.5972-.8663.1941 1.0007-.7913 6.5121-3.44904 14.8464-6.62931 21.5078-8.21196 2.3449-.55245 2.9274-.68683 4.0626-.91079 8.2745-1.657314 16.9522-2.224697 25.0172-1.642391zm11.426 1.776761c2.226.23891 3.958.53752 3.958.68683 0 .05972-.283.17917-.627.28368-.911.26875-2.405 1.10489-3.704 2.07539-1.912 1.43335-5.108 4.85248-6.945 7.45048-.254.3583-.568.642-.702.642-.15 0-1.583-.2687-3.211-.5972-6.0196-1.1945-13.6518-2.374-17.9683-2.7771-1.9118-.1792-1.9118-.1941.1643-1.29902 7.2887-3.86708 14.1294-5.94247 21.567-6.56956 1.599-.13439 5.736-.07467 7.468.1045zm7.035 1.37364c3.197.92571 5.512 5.27059 6.617 12.37764.493 3.1952.493 3.2101.254 3.2101-.12 0-1.18-.2986-2.36-.6569-5.198-1.6125-10.127-2.9265-17.147-4.5689-.776-.1791-1.463-.3583-1.538-.4031-.314-.1791 3.943-5.18097 5.795-6.79351 3.346-2.92643 5.9-3.89694 8.379-3.16533zm4.675 1.49309c8.514 3.37436 16.549 10.12305 22.329 18.79785 1.404 2.1053 2.33 3.6282 2.33 3.8074 0 .0896-.253.0299-.582-.1344-.941-.4927-7.08-3.0459-9.858-4.1059-2.808-1.0751-7.109-2.6129-9.499-3.3744-.822-.2688-1.568-.5375-1.658-.6122-.09-.0746-.209-.5972-.254-1.1496-.239-2.4338-1.045-6.271-1.807-8.4957-.553-1.59758-1.538-3.52365-2.36-4.52402-.388-.49272-.642-.89586-.538-.89586.09 0 .941.31356 1.897.68683zm7.752 2.71741c16.504 6.98764 30.813 18.67844 41.119 33.62424 1.06 1.5378 2.703 4.1209 2.972 4.6584.149.3135.149.3135-.15-.0299-.179-.209-.806-.9406-1.389-1.6275-3.913-4.5837-12.606-10.3918-23.18-15.4981l-1.494-.7167-1-1.6872c-3.734-6.256-8.335-11.5714-13.488-15.6027-1.463-1.1347-4.704-3.29971-5.705-3.82229-.359-.17917-.642-.35834-.642-.40314 0-.13437.522.05972 2.957 1.10489zm-55.3377 2.15004c1.628.0896 2.9275.209 2.9125.2688-.0298.0597-1.15.851-2.5092 1.7618-4.0925 2.7622-7.5427 5.5692-11.5306 9.4064l-2.2851 2.1948-2.1658-.0895c-3.6593-.1643-9.5739-.1494-12.6656.0447-4.4808.2688-3.9132.3882-4.4659-.9854-2.7482-6.8831 4.0626-11.5565 18.4011-12.6315 4.1074-.29858 8.6927-.29858 14.3086.0299zm9.5142.8809c4.66.5674 7.9609 1.09 13.1435 2.0605 2.36.4479 4.854.9555 4.914 1.0003.03.0299-.687 1.1796-1.583 2.5532-2.166 3.2997-4.1075 6.6442-6.094 10.4516-.4182.8212-.6423 1.0899-.8663 1.0899-.1792 0-1.4936-.2389-2.9274-.5226-5.4815-1.075-12.0235-2.1052-17.3407-2.7472-4.0177-.4778-4.9587-.5674-10.0369-.9855-.6423-.0597-1.165-.1493-1.165-.2239 0-.2986 5.1828-5.0466 7.916-7.2564 2.33-1.8813 6.6615-4.9272 8.1252-5.7036.6572-.3583.5675-.3583 5.9146.2837zm-41.1186 3.9119c-.6721.6719-1.1351 1.299-1.5384 2.1052-.4929 1.0153-.5676 1.3289-.6273 2.4487-.0598 1.3736.1493 2.5233.7169 3.8372.2091.5077.239.7017.1046.7316-.0897.0299-1.0456.1792-2.1209.3136-5.4218.7017-10.3208 2.15-13.3528 3.9566-.687.4181-1.2845.7167-1.3143.6868-.0747-.0597 3.9281-3.8521 5.5561-5.2705 3.271-2.822 6.4374-5.2109 9.8578-7.4654 1.3143-.866 2.6287-1.732 2.9125-1.9261.8662-.5674.8214-.4031-.1942.5823zm62.8201-.0448c5.258 1.2094 10.65 2.6577 16.49 4.4344 1.538.4629 2.3.7615 2.345.9258.373 1.3139.507 15.7968.149 16.1252-.075.0598-1.27-.2388-2.674-.6868-7.303-2.3292-17.041-4.9421-24.644-6.6143-1.5532-.3434-2.8825-.657-2.9422-.7018-.0598-.0298.239-.7017.6572-1.508 2.957-5.599 7.304-12.5717 7.826-12.5717.12 0 1.374.2687 2.793.5972zm22.524 6.4053c6.467 2.1799 13.741 5.0317 18.132 7.122l1.06.4927 1.061 2.0605c1.912 3.7178 3.495 7.54 4.959 11.9894.911 2.7921 1.687 5.5543 1.583 5.6439-.045.0448-1.3-.5077-2.793-1.2094-7.483-3.5087-16.176-7.0175-24.017-9.6603-1.524-.5225-2.808-.9854-2.853-1.0302-.06-.0448-.045-1.732.03-3.7476.119-3.4042-.03-9.9887-.254-11.9148-.045-.4181-.06-.7764-.03-.7764.045 0 1.449.4629 3.122 1.0302zm-68.3769 2.9862.7319.0896-1.1053 1.1944c-1.5235 1.6424-4.2717 4.8973-5.7653 6.8234-.687.8959-1.2845 1.6125-1.3293 1.6125-.0597 0-.7318-.4777-1.5085-1.06-2.1209-1.5976-4.7645-3.9866-5.9893-5.405-1.1202-1.3139-2.106-2.6726-2.106-2.9264 0-.1643 1.1949-.2837 4.6302-.4629 2.5242-.1344 11.1571-.0448 12.4416.1344zm4.5107.2538c6.8854.5077 15.4138 1.6275 23.0013 3.031 4.0327.7465 5.7055 1.0899 5.8847 1.1944.1195.0747-.3136 1.1049-1.2695 3.0907-1.5384 3.1803-4.1373 8.9436-5.2425 11.6311-.702 1.7021-.8962 2.0605-1.0754 1.941-.3585-.209-10.4104-1.941-15.6977-2.7025l-3.6443-.5076-2.6288-1.3736c-4.0924-2.1351-10.7538-6.1366-10.7538-6.48 0-.2688 4.6301-5.9275 6.6913-8.1821 1.7923-1.9559 1.7325-1.9112 2.7034-1.8216.463.0448 1.3741.1195 2.0313.1792zm-21.5227 1.2542c1.7475 2.4934 4.4061 5.0914 7.7816 7.6296.7767.5823 1.4189 1.09 1.4189 1.1199 0 .0447-.3286.5225-.7318 1.075-.4033.5524-1.3443 1.9111-2.0911 3.016l-1.3591 2.0157-5.4815.0298c-7.1991.0299-11.9936.4031-17.0419 1.3289-1.0903.1941-2.0612.3284-2.1359.2687-.0746-.0448-.3883-.5673-.687-1.1497-1.5384-3.0757-1.7176-5.599-.5526-7.9879 1.9715-4.0314 7.8413-6.8533 17.0867-8.2269 3.0469-.4629 2.8228-.5077 3.7937.8809zm54.7999 3.882c5.915 1.3139 11.784 2.807 17.132 4.3449 2.225.642 9.768 2.9861 9.842 3.0608.314.3135-1.269 17.4243-1.687 18.0961-.06.0896-.314.0598-.717-.0746-8.663-3.0011-25.735-7.5699-34.7264-9.3168-.5228-.0896-.941-.2539-.941-.3435 0-.7913 7.2439-16.5134 7.6024-16.5134.0896 0 1.6579.3284 3.495.7465zm53.993 1.2691c14.204 7.1817 22.778 14.4829 24.017 20.4105.329 1.5229.18 2.6726-.493 4.0313-.552 1.1049-1.881 2.5382-2.763 3.016l-.493.2538-2.778-1.8514c-3.211-2.1351-5.496-3.4789-10.096-5.9574-3.062-1.6573-3.316-1.8215-3.421-2.2545-.164-.7466-1.075-3.9269-1.568-5.4797-1.284-3.9865-2.927-8.0775-4.675-11.5713-.597-1.1945-1.03-2.165-.956-2.165.075 0 1.539.7017 3.226 1.5677zm-130.3305 2.3292c-1.0007 2.3143-.7916 4.9123.6422 7.8686l.6572 1.3885-.3734.1344c-.2091.0896-.4779.1493-.5974.1493-.4182 0-4.6451 1.4633-5.9147 2.0605-1.9118.8809-3.7787 2.15-5.0184 3.4042-.5825.6122-1.0754 1.0601-1.0754 1.0004 0-.1941 2.6735-4.5689 4.0626-6.6442 2.3001-3.464 7.6173-10.3023 7.8264-10.0784.0299.0299-.0598.3584-.2091.7167zm33.2324 2.8817c2.3002 1.4931 5.2425 3.225 7.931 4.6435 1.0754.5673 1.9715 1.0899 1.9715 1.1347s-.4182.0299-.926-.0299c-3.1216-.3732-8.1102-.8062-12.0682-1.0451-1.5235-.0896-2.793-.1941-2.8229-.224-.1046-.1045 3.7638-5.7334 3.9431-5.7334.0298 0 .926.5674 1.9715 1.2542zm72.9321 1.8663c9.021 3.0608 17.639 6.5547 25.645 10.3919 2.42 1.1497 2.181.8361 2.793 3.658.702 3.1803 1.509 8.0328 1.613 9.7051l.045.6719-1.195.1194c-1.718.1792-11.217.1642-13.069-.0149-1.374-.1344-1.807-.2538-3.525-.9705-3.569-1.4931-10.709-4.1657-14.846-5.5692-.702-.224-1.299-.4778-1.344-.5375-.045-.0598.059-1.299.254-2.7622.537-4.3449 1.389-13.4676 1.389-15.0951 0-.1792.015-.3285.044-.3285.015 0 1.016.3285 2.196.7316zm-80.0565 3.24c0 .0598-.6273 1.1497-1.404 2.4337-1.9715 3.2998-3.958 6.9578-5.4964 10.1231l-1.3144 2.7324-1.0903-.6868c-4.3912-2.822-9.335-6.8085-11.8143-9.5259-1.1501-1.2691-2.6287-3.1653-2.6287-3.3594 0-.4181 8.0205-1.4633 13.0689-1.7021 1.9267-.0896 10.6792-.1046 10.6792-.015zm5.3769.2091c3.3755.209 5.4068.3732 9.7084.8361l3.5099.3882 1.4936.6719c.8215.3732 2.5989 1.1795 3.958 1.7917 2.6885 1.2243 7.5128 3.2101 10.4402 4.3 1.0157.3733 1.9118.7167 1.9716.7466.0597.0448-.3585 1.299-.941 2.807-.926 2.4188-2.7781 7.5251-3.734 10.2873-.4032 1.1795-.2987 1.1497-2.4495.7167-1.3442-.2688-2.7482-.5226-4.9886-.9108-3.1664-.5375-8.9466-1.3886-12.1727-1.7768-1.3891-.1642-2.808-.3284-3.1366-.3732-1.4189-.1792-5.123-.5077-7.4679-.6719-4.1821-.2837-3.8834-.2091-6.6913-1.8664-1.3741-.8212-2.4943-1.5826-2.4943-1.6871 0-.2987 2.1358-4.6883 3.5995-7.3908 1.3592-2.5084 4.3464-7.5849 4.66-7.8984.2241-.209.5676-.209 4.7347.0299zm19.4167 2.1052c5.0932.7465 13.1735 2.2098 13.3826 2.4039.0598.0746-1.2098 3.4788-1.3741 3.6879-.1344.1642-8.5882-3.1952-12.3819-4.9123-1.4786-.6719-2.8677-1.284-3.0917-1.3736-.239-.0747-.4182-.209-.4182-.2837 0-.0746.1792-.0896.4182-.0597.224.0448 1.7774.2837 3.4651.5375zm-48.1982.8361c2.7034 3.5983 7.3783 7.6595 12.9196 11.2429 1.0753.7018 1.9566 1.3438 1.9566 1.4334.0149.1792-.9261 2.3889-1.0754 2.5532-.0598.0597-1.7774.1194-3.8087.1493-7.7667.1194-13.98.8062-19.2972 2.1649-1.2696.3285-2.4644.6271-2.6437.6719-.2837.0597-.4331-.0896-1.0305-1.0003-.9261-1.4334-1.9118-3.5834-2.2106-4.8227-.5227-2.0903-.2389-4.4345.7319-6.1515 1.8072-3.1952 5.3172-5.3154 12.1728-7.3609 1.1202-.3285 1.2247-.2837 2.2852 1.1198zm67.0026 2.6577c9.6035 2.1351 19.9095 4.9123 28.4675 7.6894 1.315.433 2.614.851 2.883.9257.568.1642.568.1792.254 2.374-.299 2.0455-.254 1.9559-.926 1.8365-8.678-1.5379-20.298-4.4494-29.5434-7.4356-3.0021-.9555-7.2439-2.4337-7.3485-2.5382-.0747-.0747.8663-2.6428 1.2546-3.4192.1046-.2239.2838-.4031.3734-.4031s2.1508.433 4.5854.9705zm86.5385 5.7782c2.39 4.8078 3.824 8.2568 5.347 12.8853.837 2.4935 1.808 5.8977 1.748 6.0769-.03.0896-.269-.2688-.538-.7914-1.613-3.1504-6.019-7.7938-10.53-11.0936-.552-.418-1-.7913-1-.8361 0-.0597.403-.433.911-.8361 1.045-.8361 1.747-1.7469 2.345-2.9862.358-.7913.403-1.0451.403-2.5233 0-1.3288-.075-1.8066-.344-2.5382-.373-1.0004-.373-1.0153-.194-.9108.06.0448.896 1.6424 1.852 3.5535zm-17.759-1.0153c1.419.7764 3.525 1.9709 4.66 2.6428 2.226 1.3139 6.722 4.2553 6.871 4.4792.104.1643-1.673 1.0004-3.241 1.5379-2.405.7913-6.109 1.5528-8.872 1.8216l-1.046.0896-.194-1.4633c-.433-3.225-.986-6.3605-1.927-10.7054l-.089-.433.612.3136c.344.1792 1.793.9556 3.226 1.717zm-72.4239-.418c10.0519 3.4639 22.3139 6.7487 32.1119 8.5852 1.404.2538 2.584.5226 2.659.5823.164.1344-2.285 14.3933-2.524 14.6173-.03.0448-1.867-.5077-4.063-1.2244-11.695-3.7924-22.0303-6.5247-34.0836-9.0182-1.0306-.209-1.9118-.433-1.9865-.4778-.1344-.1343 2.33-7.1518 4.3314-12.303.5527-1.4184.7319-1.7469.9261-1.6722.1344.0597 1.3143.4628 2.6287.9108zm-79.0708.9705c-.4481 1.299-.3286 3.7178.2987 5.5393.4033 1.1497 1.165 2.7025 1.9715 3.9716.3286.5226.5377 1.0004.4631 1.0601-.0747.0747-.7767.3733-1.5534.6719-3.7489 1.4781-6.81076 3.8969-8.02057 6.3307-.20911.4329-.41821.7614-.44808.7166-.23897-.2239 2.46443-8.2268 4.09244-12.1089 1.1202-2.6427 3.22621-7.0174 3.30081-6.8084.0299.0896-.0149.3733-.1045.6271zm117.5307 4.4942c3.286 1.1347 6.96 2.4934 9.858 3.6281 1.598.6271 3.196 1.2393 3.555 1.3737.746.2687.836.5375.149.433-.269-.0448-.956-.1195-1.538-.1643-4.914-.418-14.563-1.8066-14.892-2.1351-.104-.1045.15-2.3441.419-3.5834.074-.4031-.075-.433 2.449.448zm-84.1937 1.7618c1.0455.6122 1.8968 1.1795 1.8968 1.2542 0 .0597-.1045.0746-.2389.0298-.1345-.0447-1.2696-.0895-2.5391-.0895-1.419 0-2.3002-.0598-2.3002-.1493 0-.3435.9559-2.2546 1.1053-2.2098.1045.0298 1.0306.5524 2.0761 1.1646zm131.7797 1.8066c8.08 6.1067 12.277 12.2134 11.59 16.8868-.373 2.5233-2.524 5.2258-5.212 6.5994l-.493.2389-1.867-1.5677c-4.332-3.6432-9.783-7.3012-16.236-10.8846l-2.345-1.299-.074-.7764c-.239-2.6129-.523-6.5845-.463-6.6741.03-.0597.582-.1493 1.225-.1941 3.599-.2837 8.842-1.6125 11.246-2.8518.538-.2836 1.031-.5076 1.091-.5225.074-.015.761.4628 1.538 1.0451zm-135.902.0149c-2.0463 4.8227-4.197 10.9593-5.6309 16.0208-.2539.8959-.4929 1.732-.5227 1.8365-.0897.224-.0747.2389-3.2113-1.7469-4.3762-2.7473-8.1849-5.599-11.3811-8.4807-1.7177-1.5528-4.3315-4.3598-4.4211-4.748-.1195-.5076 5.9893-1.8365 11.1721-2.4487 1.2845-.1493 5.0035-.433 6.6465-.5076.4929-.0299 2.3599-.0597 4.1671-.0747 2.554-.0298 3.2411.015 3.1814.1493zm5.2723-.0447 2.1658.1194 1.3741.7615c6.7659 3.7775 17.8036 8.6151 28.3932 12.4224.7169.2538.926.4032.8812.5823-.0448.1344-.6423 2.1799-1.3443 4.5689-.7019 2.374-1.389 4.7181-1.5234 5.1809-.1344.4778-.2987.866-.3734.866-.0598 0-.7767-.1343-1.5832-.2986-4.3912-.866-12.7852-2.1052-19.1778-2.8368-3.7041-.4181-11.411-.9705-15.0852-1.0751l-1.4339-.0447-1.5533-.881c-.8663-.4778-1.6131-.9406-1.6579-1.0153-.1942-.2986 2.3001-8.2119 4.0476-12.8853.9111-2.4337 2.0164-5.1959 2.1956-5.4945.0747-.1344 1.7923-.1194 4.6749.0299zm8.3642.5375c4.5704.3882 7.1095.6719 12.9345 1.508 5.7204.8062 14.2638 2.2545 14.4729 2.4636.0448.0448-2.2255 7.1966-2.6885 8.4508-.0448.1344-.5377.0149-1.6728-.3882-4.8542-1.7469-10.5597-4.0313-15.5782-6.256-3.1066-1.3736-11.5305-5.5244-12.0234-5.9126-.3435-.2837-.5825-.2837 4.5555.1344zm79.4745.8809c2.778.3733 5.212.642 7.378.8361 3.988.3434 3.973.3434 6.87 1.6125 5.213 2.3143 12.158 5.6588 13.114 6.3307l.403.2837v5.0018c0 4.315-.313 11.8103-.522 12.4075-.045.1493-.822.1941-3.212.1941h-3.136l-1.613-.8062c-7.259-3.6432-16.788-7.6147-26.75-11.1534-1.599-.5673-2.943-1.06-2.973-1.1048-.03-.0299.015-.3882.105-.7764.328-1.4483 1.075-5.5991 1.732-9.6006.374-2.2545.702-4.1806.732-4.2702.045-.1045 1.031 0 3.032.3285 1.643.2688 3.809.5972 4.84.7167zm27.258 2.9414c.239 2.4337.403 5.2108.313 5.2108-.045 0-1.986-.9406-4.316-2.0754-2.33-1.1347-5.467-2.6278-6.99-3.2997-1.524-.6719-2.823-1.284-2.898-1.3438-.06-.0597 1.927-.0895 4.406-.0447 2.495.0298 5.452 0 6.557-.0747 3.077-.209 2.733-.4031 2.928 1.6275zm-145.4913-.4181c1.0605 1.3139 3.9132 4.1358 5.6757 5.614 3.0768 2.5681 6.8257 5.2258 11.1721 7.9133.9559.6122 1.7773 1.1497 1.8221 1.1945.0897.1642-.2539 1.4184-.4331 1.5379-.0896.0597-1.1053.1194-2.2553.1194-2.6885 0-8.3193.433-10.7987.8212-2.0612.3285-2.6586.433-3.9879.7018-2.106.418-4.0178.9406-5.9146 1.5975l-1.62804.5824-.68705-.7765c-1.00071-1.1347-2.50924-3.434-3.18136-4.8823-1.165-2.4935-1.47865-4.763-.92603-6.7488.17924-.642.44808-1.4184.59744-1.717.91109-1.7768 2.89757-3.6581 5.27234-4.9869 1.1501-.642 4.0327-1.8962 4.3763-1.9111.0896 0 .4929.418.8961.9406zm71.4684 1.6125c9.2454 1.956 22.1949 5.4348 31.5899 8.4957 1.314.433 2.733.8958 3.136 1.0302.418.1194.792.2986.837.3583.059.0747.044.3733-.015.6868-.075.2987-.478 2.2098-.897 4.2703-.433 2.0455-.836 3.7924-.896 3.867-.209.224-8.02-1.4333-15.473-3.2698-7.8715-1.9559-14.4433-3.8522-21.6424-6.271-3.8983-1.2989-4.0327-1.3587-3.9879-1.717.0298-.3882 2.1507-7.0324 2.5092-7.8984.239-.5823-.2838-.6271 4.8392.4479zm76.8309 6.0619c4.779 2.6727 9.544 5.6887 12.83 8.1523 2.12 1.5826 5.182 4.1209 5.182 4.2851 0 .1792-2.957 1.299-4.884 1.8514-2.479.7167-6.138 1.3886-9.305 1.7171-2.36.2538-5.989.4927-6.079.4031-.045-.0448-.015-.9108.075-1.9111.314-3.4789.523-9.3019.418-12.3329-.06-2.15-.045-3.016.075-3.016.089 0 .851.3882 1.688.851zm-159.65058 5.3453c.71693 2.1052 2.03129 4.3747 3.64437 6.3157.43314.5226.76173.9705.73186 1.0004-.01494.0149-.41821.2239-.86628.4479-1.26956.6271-3.22617 1.941-4.06258 2.7323-.88122.8212-2.1209 2.5234-2.35987 3.255-.22404.642-.49289.6569-.38834.0149.04481-.2538.11949-1.2243.1643-2.1202.11948-2.0455.43314-5.0466.82147-7.6894.32859-2.1351 1.23969-6.8233 1.52347-7.8386.17923-.5674.17923-.5226.28378 1.0451.07468 1.1646.22404 1.9858.50782 2.8369zm79.83258-1.5528c4.4658 1.4781 5.7652 1.8663 11.3513 3.4938 6.6767 1.941 14.7867 3.8969 22.2547 5.39 1.523.2986 2.823.5972 2.897.6719.12.1045-.298 2.0007-1.717 7.8237-.329 1.314-.643 2.5233-.717 2.7025-.135.3136-.179.2986-2.539-.4927-11.337-3.8074-23.9575-7.1817-36.3543-9.7498-1.5384-.3285-2.8677-.6271-2.9275-.6719-.0747-.0299.0299-.5972.2091-1.2243.1942-.6421.8962-3.031 1.5832-5.3154.6721-2.2695 1.2696-4.1358 1.3144-4.1358s2.1358.6718 4.6451 1.508zm42.747 1.4184c9.111 3.2549 18.102 6.9876 24.614 10.2276l2.016 1.0153h-1.12c-1.045.0149-6.855-.3285-8.663-.5076-6.571-.6271-9.708-1.0153-14.831-1.8067-3.749-.5673-7.274-1.1944-7.378-1.3139-.045-.0298 0-.433.104-.866.388-1.7767 1.076-5.0466 1.285-6.0918.343-1.7618.358-1.7916.567-1.7916.12 0 1.643.5076 3.406 1.1347zm62.297-.1344c.045.3136.254 1.5827.463 2.8369.538 3.1205.941 6.7487 1.135 10.1231.18 3.0608.15 7.331-.044 6.5695-.762-2.9563-1.479-4.5539-3.092-6.7935-1.09-1.5229-2.853-3.5535-4.003-4.5987-.388-.3583-.627-.6868-.553-.7167.658-.2687 2.286-1.508 3.227-2.4337 1.359-1.3587 2.165-2.8518 2.419-4.4792.09-.5823.209-1.0601.269-1.0601.045 0 .135.2538.179.5524zm-153.2124 2.8369c.5377.3135.9708.5972.9708.642 0 .0896-2.2404.0597-2.33-.0448-.0747-.0597.239-1.1497.3286-1.1497.0448 0 .5078.2539 1.0306.5525zm-2.1956 1.5677c-.0448.1941-.3883 1.7171-.7617 3.4042-1.0455 4.6137-2.4943 13.2735-2.4943 14.8562 0 .2091-.0598.3731-.1195.3731-.1792 0-4.2717-2.4186-6.5718-3.8818-2.5989-1.6574-6.0789-4.1508-8.3193-5.9425-1.7326-1.4035-5.7504-5.181-5.7504-5.4199 0-.1045 2.9125-1.1049 4.4808-1.5229 4.5405-1.2244 11.3364-2.0456 17.9829-2.165 1.6131-.0299 1.6131-.0299 1.5533.2986zm7.468 1.299c8.3043 4.3747 20.0291 9.4064 29.9764 12.8554.702.2389 1.3293.4629 1.404.5077.0746.0448-.1345 1.1496-.4631 2.4337-.5825 2.3737-.8513 3.5237-1.613 6.8827-.239 1.016-.4481 1.882-.4929 1.912-.0448.044-1.9118-.224-4.1522-.598-5.9893-.985-9.9025-1.523-14.2489-1.941-1.3143-.134-2.6885-.268-3.0619-.313-1.5234-.164-7.7965-.523-9.2602-.523-1.8073 0-1.8371-.015-6.0939-2.284l-2.3001-1.225.1045-.9701c.478-4.6285 2.106-13.6617 3.2262-17.8124l.1494-.5525h1.8669 1.867zm4.0625-1.3139c6.0192.3583 13.6515 1.1944 20.0142 2.1649 2.9424.448 10.022 1.6872 10.1564 1.7768.0598.0448-.1195.8959-.3883 1.8962-.2838 1.0153-.8812 3.24-1.3293 4.9571-.4332 1.717-.8663 3.1802-.926 3.24-.0598.0597-1.8372-.5077-3.9282-1.2692-6.0042-2.1799-12.3669-4.7778-18.8939-7.7043-2.106-.9406-10.3805-5.1212-10.3805-5.2407 0-.1194 1.5384-.0746 5.6756.1792zm138.7245 4.9421c3.421 3.4789 5.422 6.7039 6.079 9.8245.434 2.0305.195 3.7178-.791 5.5838-1.001 1.897-3.809 4.3-6.243 5.331l-.732.313-1.718-1.702c-4.257-4.21-11.336-9.3467-17.968-13.0495l-1.329-.7316.089-1.4035c.06-.7764.135-1.4483.165-1.508.03-.0598.956-.1493 2.046-.2091 6.796-.3583 12.875-1.5229 17.117-3.2847.881-.3733 1.642-.6719 1.687-.6719.045-.015.777.6719 1.598 1.508zm-172.7186.8212c4.182 4.0761 9.783 8.1522 16.788 12.2134l2.2852 1.3287-.0897.971c-.1941 2.15-.224 2.254-.5675 2.254-.7767 0-5.7056.463-7.3186.672-4.5854.597-8.7077 1.657-11.4858 2.941l-1.29939.598-1.03058-.911c-3.06186-2.747-5.82501-6.644-6.9004-9.7201-.47794-1.3437-.5825-3.9268-.22403-5.166.53769-1.8813 1.89686-3.7178 3.77879-5.1064 1.07538-.8062 3.40539-2.1201 3.74891-2.1201.10455 0 1.1501.9257 2.3151 2.0455zm70.5424-.5375c7.6472 1.6125 16.4594 3.867 24.4652 6.2709 3.838 1.1497 10.201 3.1952 11.037 3.5685l.658.2687-.374 1.4035c-1.105 4.255-2.33 8.57-2.434 8.69-.135.134-1.076-.03-6.483-1.195-2.718-.582-5.242-1.164-9.0507-2.105-2.4495-.582-6.9601-1.807-10.3058-2.747-6.064-1.7322-15.5483-4.7482-15.8619-5.0468-.0598-.0448.1195-1.0004.4182-2.1053 1.0455-4.0612 2.0462-7.6894 2.1657-7.9282.1494-.2837-.1643-.3285 5.7653.9257zm43.8072-.5525c8.439 1.4483 16.877 2.374 25.615 2.7921l3.57.1642 1.06.5226c1.763.8959 4.63 2.4636 4.72 2.6129.179.2688-1.016 7.7193-1.882 11.7653-.702 3.285-1.568 6.883-1.748 7.197-.104.239-.358.269-1.881.269h-1.763l-1.553-.837c-4.541-2.403-11.187-5.554-16.699-7.913-3.674-1.583-13.487-5.36-15.638-6.0319-.328-.1045-.642-.224-.702-.2837-.059-.0448.224-1.4035.613-3.0011.403-1.5976.971-3.9567 1.269-5.2258.299-1.2691.583-2.4038.628-2.5233.074-.2538.298-.224 4.391.4927zm35.308 3.8522c-.194 1.7767 0 1.732-2.374.4628-1.15-.6121-2.151-1.1795-2.226-1.2542-.09-.0746.851-.1343 2.27-.1343h2.435zm4.048 4.733c6.124 3.7029 11.172 7.4659 15.011 11.1979 1.195 1.165 1.658 1.702 1.553 1.807-.239.239-3.047 1.15-5.063 1.657-3.525.866-7.722 1.478-12.173 1.762-3.48.239-6.527.358-6.676.269-.075-.045.149-1.21.492-2.598 1.016-4.061 2.077-9.4962 2.674-13.7067.119-.9107.269-1.8663.314-2.1351l.074-.4927.852.4778c.463.2688 1.792 1.0601 2.942 1.7618zm-88.2713 2.7772c12.1728 3.9867 25.2563 7.4507 36.8173 9.7497 1.344.254 1.419.299 1.374.642-.075.732-2.972 10.243-3.211 10.541-.09.12-.224.135-.389.06-.403-.209-5.84-2.016-9.2-3.061-5.1531-1.597-11.7399-3.419-16.3551-4.539-4.8392-1.179-6.1984-1.478-11.0974-2.493-2.1209-.433-3.8983-.836-3.9431-.881-.1344-.12.2241-1.777 1.6878-7.8538.5825-2.4486.8065-3.2847.8513-3.2847.015 0 1.5832.5076 3.4652 1.1198zm45.2853.6569c6.423 2.3288 12.472 4.7778 18.491 7.4958 2.375 1.075 9.29 4.494 10.53 5.21l.821.478-2.763-.089c-8.289-.269-23.165-2.046-31.44-3.763-.567-.105-1.195-.209-1.374-.209s-.358-.06-.418-.134c-.06-.12.896-3.853 2.419-9.3919.12-.4181.269-.7764.344-.7764s1.598.5375 3.39 1.1795zm-120.78644-.3135c0 .4628 1.59814 3.4943 2.50923 4.7783 1.09033 1.537 3.52488 4.285 4.52559 5.121.40327.328.73186.657.73186.702 0 .059-.41821.373-.94096.701-2.64366 1.687-4.42104 4.524-4.43597 7.048 0 .91-.22404 1.06-.34353.224-.04481-.299-.25391-1.359-.46301-2.345-.80654-3.837-1.3293-7.734-1.65789-12.317-.26885-3.6286-.26885-4.1811-.07468-4.1811.08961 0 .14936.1195.14936.2688zm189.50744 3.3443c-.434 6.002-1.21 11.139-2.48 16.32l-.537 2.239-.105-1.493c-.06-.821-.224-1.881-.344-2.374-.567-2.06-1.837-4.434-3.554-6.644-.418-.538-.822-1.06-.896-1.165-.105-.134.209-.358 1.105-.806 1.792-.896 2.882-1.672 4.152-2.956 1.195-1.195 2.076-2.658 2.39-3.942.104-.388.224-.7018.284-.7018.059 0 .044.6868-.015 1.5228zm-157.1264 1.314c1.3293.702 2.4197 1.299 2.4197 1.344s-1.2098.089-2.6885.119l-2.6885.06v-.523c0-1.119.1942-2.359.3734-2.314.0896.03 1.2547.612 2.5839 1.314zm7.3336 3.673c7.7219 3.658 16.6834 7.316 24.8534 10.138 1.15.403 2.1059.806 2.1507.911.0299.104-.1642 1.478-.463 3.076-.4929 2.747-1.5981 9.391-1.8072 10.899-.1046.836-.0598.821-1.8819.508-1.2099-.209-4.3315-.687-6.4822-.986-1.0455-.149-4.7497-.552-8.8869-.955l-2.1657-.209-2.5391-1.12c-3.8087-1.672-6.8257-3.076-10.2311-4.793l-3.0619-1.538-.0896-1.105c-.2539-2.986-.0598-15.468.239-16.379.0448-.134.8662-.179 3.3755-.179h3.3157zm3.6742-1.433c4.3912.298 9.0363.761 13.9651 1.433 3.5996.478 11.0974 1.702 11.2318 1.837.0747.059-.0448.866-.2539 1.806-.1941.941-.5825 2.792-.8364 4.106s-.5227 2.449-.5825 2.509c-.2091.238-10.4103-3.539-16.7282-6.167-5.2276-2.18-12.5462-5.524-12.5462-5.748 0-.09 2.0163-.015 5.7503.224zm-14.6073.179c-.239.985-.4332 10.093-.2987 13.258.0896 1.852.1045 3.405.0597 3.464-.1942.209-7.7368-4.21-11.5305-6.763-3.5697-2.404-8.0505-5.868-8.0505-6.241 0-.299 3.4651-1.628 5.9146-2.255 3.495-.911 9.3499-1.717 12.6657-1.777 1.2994-.015 1.3144-.015 1.2397.314zm89.7199 3.464c11.71 2.06 18.67 2.837 31.306 3.494l2.166.119 1.538.881c.836.478 1.523.926 1.523 1 0 .239-1.06 3.644-2.105 6.749-.912 2.732-3.242 8.824-4.168 10.9l-.328.731-3.54-.089-3.525-.105-4.257-2.15c-5.75-2.911-9.424-4.599-15.16-6.958-3.106-1.269-9.185-3.598-10.186-3.897-.717-.209-.747-.313-.433-1.328.836-2.733 2.659-8.795 2.793-9.332.105-.418.254-.672.388-.672.135 0 1.912.299 3.988.657zm-46.0921.328c7.692 1.538 17.4153 3.927 24.0021 5.898 8.155 2.449 13.726 4.33 13.786 4.658.075.374-2.509 8.033-2.733 8.108-.463.179-12.1732-2.464-19.5665-4.435-8.3641-2.224-20.3875-5.942-20.3875-6.315 0-.165.3733-2.031 1.3591-6.854.2689-1.343.3734-1.597.6124-1.597.1494 0 1.4637.239 2.9274.537zm109.4651.612c2.853 3.718 3.943 6.271 3.943 9.228.015 2.433-.761 4.225-2.643 6.121-1.509 1.553-4.332 3.225-7.095 4.226l-.851.313-.971-1.149c-1.24-1.464-4.272-4.435-6.004-5.868-2.943-2.434-7.588-5.674-10.963-7.675l-1.524-.895.09-.583c.164-1.134.015-1.075 3.465-1.194 8.29-.269 15.578-1.434 20.358-3.27.537-.209 1.045-.373 1.135-.388.09 0 .567.507 1.06 1.134zm-172.2408.732c4.1672 3.509 10.4851 7.704 16.6088 11.019 1.1351.612 2.1358 1.18 2.2404 1.239.1045.075.2688 1.135.4182 2.807.1344 1.478.2987 3.121.3584 3.628.0747.657.0598.971-.0448 1.001-.0896.03-1.0305.164-2.1059.298-4.1672.538-8.4986 1.747-10.5 2.912-.2688.164-.5526.299-.6124.299-.1643 0-2.5391-1.792-4.1223-3.121-.7318-.612-2.0462-1.836-2.9274-2.702-6.45234-6.451-7.79658-12.094-3.82362-16.171.77667-.791 2.82289-2.344 3.09174-2.344.04481 0 .68708.508 1.41888 1.135zm145.8498 2.135c0 .164-.06.463-.15.672l-.134.373-.986-.552c-.523-.299-.971-.597-.971-.672 0-.06.508-.104 1.12-.104 1.001 0 1.121.029 1.121.283zm2.748 3.524c5.063 3.165 9.424 6.465 12.546 9.481 2.031 1.956 3.868 4.046 3.704 4.21-.164.165-3.973 1.12-5.78 1.449-4.451.806-7.991 1.149-14.443 1.373-3.182.12-4.959.135-5.063.03-.09-.089.179-.896.776-2.299 1.748-4.151 4.167-10.989 5.288-14.961.134-.463.298-.851.358-.851s1.24.702 2.614 1.568zm-88.63 2.314c3.4203 1.15 10.6792 3.36 13.5917 4.151.6123.179 2.1209.582 3.3307.926 2.7781.761 9.2155 2.374 11.9786 3.001 3.301.731 6.482 1.418 7.617 1.627.583.12 1.091.239 1.15.284.12.089-1.12 3.628-3.136 8.973-1.688 4.45-1.927 5.017-2.151 4.957-.104-.03-1.971-.642-4.1521-1.373-7.9609-2.658-14.458-4.494-22.4039-6.331-2.9723-.672-8.3343-1.777-9.5739-1.956-.3734-.06-.7618-.149-.8514-.209-.1941-.119.5526-5.091 1.9268-12.706.4032-2.195.3883-2.135.7019-2.016.1345.045 1.0306.359 1.9716.672zm44.031 2.255c5.034 1.836 11.994 4.703 16.4 6.748 2.838 1.314 8.872 4.345 9.245 4.644.284.224.239.239-.597.164-.493-.045-1.763-.149-2.838-.224-2.315-.194-6.796-.672-9.186-.985-.941-.12-2.225-.284-2.838-.359-.612-.089-1.359-.194-1.643-.238-.283-.03-.926-.135-1.418-.209-5.467-.852-12.338-2.061-12.502-2.225-.06-.06.433-1.747 1.09-3.748 1.419-4.315 1.479-4.479 1.643-4.479.075 0 1.27.418 2.644.911zm-109.77897 1.508c1.85205 3.344 5.03337 6.748 9.72327 10.392l1.8521 1.433-.5825.448c-2.3151 1.792-3.4204 4.21-3.032 6.644.0747.523.1195.971.0747 1.015-.1643.165-3.1067-5.778-4.67499-9.421-1.47866-3.464-4.28661-11.586-4.00283-11.586.02987 0 .31366.492.64225 1.075zm181.42697 2.06c-.911 2.822-2.106 6.092-2.987 8.212-.807 1.926-3.436 7.466-3.54 7.466-.03 0-.045-.687-.06-1.538 0-2.359-.777-4.659-2.36-7.107-.373-.598-.687-1.12-.687-1.18s.448-.269 1.016-.463c3.823-1.373 7.438-4.091 8.678-6.554.537-1.075.522-.613-.06 1.164zm-152.0181.866c2.1209 1.045 5.1977 2.494 6.8406 3.225 1.643.732 3.047 1.374 3.1067 1.434.0747.059-1.9865.104-4.5555.089-2.5689 0-5.586.045-6.7062.105l-2.0313.119-.1792-1.388c-.4033-3.33-.5676-5.495-.4033-5.495.0299 0 1.8073.851 3.9282 1.911zm78.1601 4.046c9.394 1.762 18.61 2.972 27.362 3.584 1.389.104 2.211.239 2.539.403 1.001.523 5.183 3.046 5.273 3.195.209.344-3.928 7.958-6.901 12.721l-1.568 2.509h-1.284c-2.734 0-14.832-1.075-16.281-1.449-.209-.045-1.195-.478-2.18-.94-4.033-1.912-11.74-5.137-14.832-6.212-.433-.149-.791-.358-.791-.448 0-.089.179-.582.388-1.119.568-1.389 3.346-8.854 4.093-11.019l.642-1.837.537.075c.299.045 1.643.284 3.003.537zm64.478 2.449c1.583 2.538 2.121 4.016 2.24 6.152.105 1.806-.089 2.851-.776 4.225-1.613 3.21-5.945 5.913-11.979 7.495-.971.254-1.882.508-2.016.538-.179.059-.538-.314-1.315-1.344-2.673-3.568-7.318-7.674-12.77-11.288-.896-.597-1.688-1.134-1.762-1.194-.06-.045.179-.732.552-1.523l.658-1.419 4.45-.089c7.02-.149 11.994-.642 17.012-1.672 1.27-.269 3.72-.896 4.287-1.105.194-.075.418-.105.493-.06.09.03.508.597.926 1.284zm-131.7648-1.105c1.0157.105 1.7923.359 5.2276 1.732 2.2255.881 4.3762 1.732 4.7795 1.867.4182.149 1.3144.492 2.0163.746.702.254 2.5989.941 4.2269 1.508s3.032 1.06 3.1067 1.12c.0896.045.1195.328.0747.642-.478 2.941-1.4339 13.632-1.4339 16.006 0 .627-.0448 1.164-.0896 1.224-.1792.179-8.8869-2.926-14.3982-5.121-5.4965-2.195-14.5775-6.271-15.0256-6.749-.4779-.523-2.8527-12.452-2.5391-12.766.0598-.074.5975-.164 1.18-.209 1.6429-.134 11.5305-.134 12.8747 0zm-14.5924.612c.2241 2.121 1.0605 6.585 1.7774 9.601.2838 1.224.4929 2.254.4481 2.299-.1494.15-5.5861-2.807-9.32-5.046-2.33-1.404-5.8699-3.748-5.8699-3.897 0-.194 1.6579-.956 3.2859-1.508 1.8521-.627 4.3165-1.195 6.8855-1.583 2.3898-.373 2.7333-.358 2.793.134zm19.7453-.224c3.958.314 14.6074 1.777 14.8762 2.061.0747.06-.3286 3.419-.463 3.792-.0896.269-5.9744-1.776-13.0241-4.539-3.0171-1.179-4.0327-1.702-2.9125-1.478.224.045.911.12 1.5234.164zm19.2972 2.822c7.707 1.538 14.473 3.225 22.0007 5.48 3.6891 1.105 11.008 3.539 11.187 3.733.149.134-1.18 3.658-1.419 3.807-.194.105-7.1991-1.448-13.2033-2.941-3.4502-.851-4.3314-1.09-10.0071-2.703-5.6458-1.597-12.5312-3.747-12.815-4.001-.1046-.09.2539-3.345.4182-3.852.0896-.254.1643-.254 3.8385.477zm78.6377-.522.926.089-.582 1.255c-.389.806-.658 1.209-.792 1.164-.105-.03-1.15-.642-2.345-1.359l-2.151-1.284 2.002.015c1.105.015 2.434.06 2.942.12zm-129.0464 2.687c3.4651 2.315 6.6166 4.151 12.2026 7.137.8962.478 1.6878.971 1.7475 1.09.0598.12.3884 1.165.7319 2.314 1.5832 5.361 3.8385 10.885 6.1984 15.17.5526.986.9559 1.837.926 1.881-.0448.03-1.3741-.582-2.9722-1.358-19.342-9.541-28.4828-19.619-23.3598-25.756.5377-.642 2.0163-1.941 2.2105-1.956.0598 0 1.1053.657 2.3151 1.478zm130.8534 1.986c5.228 3.479 9.455 7.152 12.098 10.467.971 1.224 1.3 1.732 1.18 1.836-.194.194-4.451.821-8.095 1.195-2.405.238-15.459.492-15.459.283 0-.059.568-.985 1.255-2.075 1.718-2.688 3.779-6.331 5.601-9.84.851-1.612 1.598-2.941 1.673-2.941.074 0 .866.478 1.747 1.075zm-81.3109.926c9.9622 3.21 22.1947 6.42 31.4999 8.301.538.105.851.239.851.374 0 .612-7.0794 15.811-7.4826 16.065-.1942.12-.6423.03-4.1671-.761-6.781-1.538-16.2503-4.091-22.7773-6.152l-2.9872-.955.0298-1.777c.0598-2.792.5975-9.287 1.165-14.035.1195-.986.2241-1.866.2241-1.971s.0448-.194.0896-.194c.0597 0 1.6579.493 3.5548 1.105zm37.6239 5.405c5.601 2.15 13.203 5.464 12.725 5.569-.149.03-.747-.03-1.329-.12-.583-.074-2.002-.298-3.152-.462-3.958-.598-12.426-2.135-12.576-2.285-.045-.059 1.195-3.24 1.404-3.583.105-.179.269-.135 2.928.881zm-66.3607 2.926c5.9744 2.688 12.8748 5.39 19.7901 7.779l3.1366 1.075.0149 5.151c.015 4.599.2091 8.899.463 10.482.0448.343.0299.567-.0746.567-.2241 0-5.9445-1.956-8.9317-3.061-3.3158-1.239-6.7063-2.598-9.8876-4.001l-2.4495-1.06-.6572-1.135c-1.7176-2.912-4.5106-9.063-5.7653-12.691-.8065-2.359-1.7624-5.435-1.7624-5.689 0-.224.3286-.104 1.9118.642 1.0455.493 2.9424 1.359 4.2119 1.941zm136.3497-1.194c-3.017 4.778-6.721 9.69-10.171 13.452-1.225 1.344-1.568 1.568-1.016.687.553-.911.897-2.314.897-3.688 0-1.567-.299-2.851-1.061-4.494-.328-.687-.553-1.284-.523-1.314s.807-.254 1.733-.493c3.853-1.015 7.378-2.568 9.41-4.15.612-.493 1.15-.866 1.18-.836.029.029-.165.403-.449.836zm-72.872 1.821c3.928.792 9.559 1.732 14.697 2.479l3.122.448 2.419 1.254c1.33.702 3.331 1.792 4.421 2.419 2.241 1.284 6.109 3.777 6.109 3.927 0 .298-4.092 5.136-6.766 7.988l-1.807 1.911-1.494-.09c-5.287-.358-11.963-1.135-18.61-2.195-3.883-.612-11.1571-1.986-11.3064-2.135-.0299-.03.6721-1.553 1.5832-3.389 1.8371-3.793 3.5995-7.63 4.8692-10.586.956-2.255 1.06-2.419 1.404-2.329.134.044.747.179 1.359.298zm-82.1476 4.793c4.2568 3.389 9.7831 6.734 16.9224 10.243l3.3905 1.657 1.5533 2.344c4.7795 7.197 10.4253 12.736 16.788 16.484.8364.492 1.4936.925 1.4637.955-.1643.179-5.8847-2.374-9.4245-4.21-13.5469-6.988-25.1372-17.111-34.0689-29.787-.4929-.702-.9559-1.374-1.0306-1.493-.0747-.12.5676.433 1.4189 1.224.8663.791 2.2105 1.956 2.9872 2.583zm142.9366-.97c2.629 5.195 1.33 9.301-3.883 12.303-3.42 1.956-7.513 3.09-14.712 4.046l-.612.089-.882-1.299c-1.687-2.478-5.362-5.957-9.021-8.51-.015-.03.717-1.105 1.643-2.404s1.882-2.628 2.106-2.956l.418-.583 6.019-.029c7.304-.045 12.382-.419 16.579-1.255 1.957-.388 1.837-.418 2.345.598zm-34.427-.03c1.897.179 4.137.343 5.003.403 3.107.164 3.764.254 3.675.463-.165.418-3.719 5.285-3.869 5.285-.089 0-.971-.522-1.956-1.179-2.166-1.404-5.183-3.166-7.677-4.495-1.001-.537-1.823-1.015-1.823-1.06 0-.044.717 0 1.614.105.881.104 3.151.313 5.033.478zm-63.7018 5.449c6.2283 1.956 11.0974 3.33 17.3257 4.853 5.5561 1.374 6.5419 1.613 8.0953 1.911 1.8072.358 1.7773.329 1.2098 1.433-1.5982 3.091-4.6451 8.093-6.7511 11.109-1.0604 1.508-1.1799 1.627-1.5832 1.583-.9559-.105-7.6024-1.762-12.7702-3.181-.9858-.268-6.0491-1.776-7.0498-2.09-.2987-.104-.5825-.269-.6273-.388-.0448-.12-.1941-1.672-.3136-3.449-.2241-3.21-.3137-12.288-.1046-12.482.0448-.06.1643-.075.239-.045.0896.045 1.1351.373 2.33.746zm70.6768 3.091c3.376 2.598 7.916 7.525 7.289 7.913-.105.06-.971.18-1.927.254-2.061.15-15.489.15-15.638.015-.045-.059.702-.97 1.688-2.015 2.001-2.15 3.958-4.42 5.481-6.361.568-.717 1.091-1.284 1.15-1.269.06.03.941.687 1.957 1.463zm25.361 3.404c0 .344-5.959 5.525-8.961 7.779-2.689 2.031-7.005 4.972-8.35 5.674-.403.224-.373.134.225-.672.194-.239.537-.851.746-1.344.359-.776.419-1.075.419-2.374 0-1.433-.21-2.359-.867-3.837-.089-.209.015-.254.762-.343 3.495-.388 7.886-1.329 10.545-2.255 1.583-.552 4.003-1.732 4.884-2.359.597-.433.597-.433.597-.269zm-64.5977 1.508c8.7827 1.688 17.2207 2.867 24.9877 3.464 1.329.105 2.42.239 2.42.299 0 .343-6.109 5.614-8.887 7.674-2.718 2.016-7.095 4.838-8.036 5.196-.448.165-6.781-.612-12.4263-1.552-3.4204-.553-9.6935-1.777-9.9474-1.927-.1344-.089.2241-.731 1.3144-2.344 1.7923-2.642 3.5846-5.584 5.2724-8.63 1.6429-2.971 1.6131-2.941 1.9118-2.852.1344.045 1.6728.344 3.3904.672zm-53.0823.702c4.0626 1.792 10.4552 4.226 16.2653 6.211l2.7631.941.1195.896c.6423 5.002 2.2105 9.645 4.0028 11.855.4182.508.702.911.6423.911-.2838 0-2.8378-1.016-4.3464-1.717-7.6322-3.599-14.7567-9.944-19.9544-17.768-1.3591-2.031-1.3442-2.016-1.1799-2.016.0747 0 .8364.314 1.6877.687zm100.474 3.449c1.777 3.539.597 7.107-3.077 9.287-4.421 2.628-11.396 3.897-21.463 3.897-3.719 0-11.067-.343-11.261-.523-.09-.104-.15-.059 1.702-1.194 4.541-2.792 8.798-6.077 13.159-10.168l1.822-1.687 4.496.119c4.107.12 12.352-.015 12.531-.209.045-.044.463-.074.941-.074.866 0 .881.015 1.15.552zm-78.6974 4.509c1.6729.523 5.2873 1.568 8.3044 2.389.941.254 5.0932 1.284 8.4089 2.076.6871.164 1.2845.343 1.3293.388.1793.179-3.3008 4.165-4.7645 5.479-3.5249 3.106-6.1238 4.076-8.8122 3.27-2.8528-.851-5.2575-5.375-6.3179-11.87-.1195-.821-.2689-1.672-.3137-1.911-.0597-.254-.0149-.403.1046-.403.0896 0 1.0156.269 2.0611.582zm22.5085 5.689c6.049 1.194 11.7699 2.105 16.1159 2.553.986.105 1.852.239 1.927.299.224.194-4.72 2.523-7.528 3.538-8.1551 2.957-16.2205 3.852-23.7034 2.628-.8513-.149-1.5384-.299-1.5384-.358 0-.045.3585-.209.7917-.344 2.5241-.806 6.273-4.001 9.3349-7.988.463-.582.8514-1.075.8663-1.075s1.6878.329 3.734.747zm48.3779 1.777c-.09.074-1.434.716-2.988 1.403-12.172 5.39-25.197 8.167-38.385 8.167-3.0917 0-7.9011-.268-10.6045-.582-4.6152-.552-5.2126-.761-2.091-.761 7.1692-.015 14.6671-1.956 22.4635-5.794l2.599-1.284 2.181.18c1.194.089 3.973.253 6.168.358 7.184.313 15.026-.284 19.462-1.508 1.254-.344 1.374-.359 1.195-.179z" fill="#fff" opacity=".25"/></svg>