<svg width="375" height="2708" viewBox="0 0 375 2708" fill="none" xmlns="http://www.w3.org/2000/svg">
<g clip-path="url(#clip0_283_18454)">
<path d="M198.215 -1.85156H395.004V199.273L200.386 395.334H296.607L395 496.62V594.289L296.607 640.591V594.289L196.768 492.279V588.501L-0.015625 395.334V194.933L198.215 -1.85156Z" fill="#F7F9FC"/>
<rect x="-0.015625" y="588.508" width="196.784" height="196.784" fill="#F7F9FC"/>
<path d="M-0.015625 1872.92V1773.8H96.206L196.768 1872.92V1773.8H395.004L192.428 1974.93H96.206L-0.015625 1872.92Z" fill="#F7F9FC"/>
<path d="M198.215 1974.93H395.004V2176.05L200.386 2372.12H296.607L395 2473.4V2571.07L296.607 2617.37V2571.07L196.768 2469.06V2565.28L-0.015625 2372.12V2171.71L198.215 1974.93Z" fill="#F7F9FC"/>
<rect x="-0.015625" y="2565.29" width="196.784" height="196.784" fill="#F7F9FC"/>
<path d="M196.95 885.258H393.734V1380.84L196.95 1177.54V885.258Z" fill="#F7F9FC"/>
<path d="M196.953 884.53V785.414H100.731L0.169022 884.53V785.414H-198.066L4.50983 986.539H100.731L196.953 884.53Z" fill="#F7F9FC"/>
<path d="M-1.27794 986.539H-198.066V1187.66L-3.44835 1383.72H-99.67L-198.062 1485.01V1582.68L-99.67 1628.98V1582.68L0.169022 1480.67V1576.89L196.953 1383.72V1183.32L-1.27794 986.539Z" fill="#F7F9FC"/>
<rect width="196.784" height="196.784" transform="matrix(-1 0 0 1 393.734 1380.11)" fill="#F7F9FC"/>
<rect width="196.784" height="196.784" transform="matrix(-1 0 0 1 196.953 1576.9)" fill="#F7F9FC"/>
</g>
<defs>
<clipPath id="clip0_283_18454">
<rect width="375" height="2708" fill="white"/>
</clipPath>
</defs>
</svg>
