<svg fill="none" height="16" viewBox="0 0 16 16" width="16" xmlns="http://www.w3.org/2000/svg"><path d="m14.8732.00488281-5.42729 3.23115719h-2.87902l-5.44004-3.22902316-1.1225817 4.38788316 1.0030617 3.18152-1.00733 3.73548 1.10977 3.7604 3.47019-1.033 2.46712 1.4641h1.89943l2.46289-1.4641 3.4723 1.033 1.1183-3.7455-1.0094-3.76263 1.0094-3.16713z" fill="#0a0a0a"/><path d="m14.9932 7.56615-.5251.28507.8502 3.17578h-4.0409l-2.15142 1.6295.28515.3164.3125-.0351 1.35877-1.0406v1.4389l.5801.1701v-1.904h3.6458l.6902-.2851-1.0103-3.76095z" fill="#d075ff"/><path d="m12.232 7.71643v1.15027l-.7401-.69517h-1.87551l-.09002.58014h1.73543l.6652.63018-.4151.1v.59505l1.2903-.31495.01-1.91549-.5802-.13503z" fill="#d075ff"/><path d="m11.0079 8.99609h-1.29534l-.36509.94026-.07501.49015.34008.13 1.89546-.4651h.01v-.60015l-.5051-.49516zm-1.28034 1.10031.26509-.68525h.84525l.34.3301z" fill="#baf24a"/><path d="m1.0062 7.56615.52512.28507-.855191 3.17578h4.045921l2.14548 1.6254-.28843.3205-.30664-.041-1.35537-1.0347v1.4371l-.58013.17v-1.9021h-3.645827l-.69015644-.2851 1.01022344-3.76095z" fill="#d075ff"/><path d="m3.77142 7.71643v1.15027l.74017-.69517h1.87543l.09002.58014h-1.73539l-.66516.63018.4151.1v.59505l-1.2953-.31495v-1.91549l.57513-.13503z" fill="#d075ff"/><path d="m15.3107 11.5999-.8126 2.7486-4.7711-1.4153-.31618.038-.11718.4336 1.36366.4086-1.86551 1.1103h-1.58536l-1.86542-1.1103 1.36031-.4051-.12003-.4351-.31007-.04-4.77108 1.4153-.815185-2.7485-.684955-.286 1.11005 3.7597 3.47079-1.0302 2.47051 1.4653h1.89548l2.46557-1.4653 3.4708 1.0302 1.1147-3.7556z" fill="#89b0ff"/><path d="m14.8793 0-5.44118 3.23577h-2.87065l-5.44124-3.23577-1.11025 4.34603-.01500344.04501.01500344.04501.99022 3.12574.52012.28507h1.65538l.58013-.13503 2.30052-1.57537.98556 6.31914.17774-.1973h.37109l-1.02427-6.63196.18004-1.82044h2.49556l.18004 1.82044-1.02668 6.63196h.36328l.1914.211.98212-6.33284 2.30047 1.57537.5801.13503h1.6554l.5201-.28507 1.0053-3.17075zm-11.49256 7.27173h-1.87042l-.920209-2.89569.860199-3.3558 4.37599 4.57109-2.45056 1.67539zm2.66561-2.28555-3.0607-3.20076 3.19073 1.89545-.12503 1.30031zm3.76085-1.30031 3.1907-1.89545-3.06066 3.20076-.12504-1.3003zm4.661 3.59086h-1.8654l-2.4506-1.6754 4.386-4.57609.8602 3.3558-.9202 2.89569z" fill="#ff5c16"/><g fill="#baf24a"><path d="m8.77167 12.2578h-1.54535l-.65015.7151.32507 1.1853h2.1855l.32507-1.1853-.65015-.7151zm-.12003 1.3203h-1.3053l-.12502-.4501.25505-.2851h1.04024l.25506.2851-.12503.4501z"/><path d="m4.49219 9.48635v.59515h.01l1.89543.4701.34008-.13-.07502-.49015-.36508-.94024h-1.2953l-.50511.49514zm.33507.25.34008-.33h.84519l.26506.68515z"/></g></svg>