<svg height="97" viewBox="0 0 96 97" width="96" xmlns="http://www.w3.org/2000/svg"><path d="m89.2 2-32.5 19.4h-17.3l-32.6-19.4-6.8 26.4 6 19.1-6 22.4 6.7 22.5 20.8-6.2 14.8 8.8h11.4l14.8-8.8 20.8 6.2 6.7-22.4-6.1-22.6 6.1-19z" fill="#0a0a0a"/><path d="m90 47.4-3.2 1.7 5.1 19.1h-24.2l-12.9 9.7 1.7 1.9 1.8-.2 8.2-6.2v8.6l3.5 1v-11.4h21.8l4.2-1.7-6.1-22.6z" fill="#d075ff"/><path d="m73.4 48.3v6.9l-4.4-4.2h-11.3l-.5 3.5h10.4l4 3.8-2.5.6v3.6l7.7-1.9.1-11.5s-3.5-.8-3.5-.8z" fill="#d075ff"/><path d="m66 56h-7.7l-2.2 5.6-.5 3 2.1.7 11.3-2.8h.1v-3.6s-3-2.9-3.1-2.9zm-7.6 6.6 1.6-4.1h5l2.1 1.9z" fill="#baf24a"/><path d="m6 47.4 3.2 1.7-5.1 19.1h24.2l12.9 9.7-1.7 1.9-1.9-.2-8.1-6.2v8.6l-3.5 1v-11.4h-21.9l-4.1-1.7 6.1-22.6z" fill="#d075ff"/><path d="m22.6 48.3v6.9l4.5-4.2h11.2l.6 3.5h-10.5l-3.9 3.8 2.4.6v3.6l-7.7-1.9v-11.5s3.4-.8 3.4-.8z" fill="#d075ff"/><path d="m91.9 71.6-4.9 16.5-28.6-8.5-1.9.2-.7 2.6 8.1 2.5-11.1 6.6h-9.6l-11.2-6.6 8.2-2.5-.7-2.6-1.9-.2-28.6 8.5-4.9-16.5-4.1-1.7 6.7 22.5 20.8-6.1 14.8 8.8h11.4l14.8-8.8 20.8 6.1 6.7-22.5z" fill="#89b0ff"/><path d="m89.3 2-32.7 19.4h-17.2l-32.6-19.4-6.7 26.1-.1.2.1.3 5.9 18.8 3.2 1.7h9.9l3.5-.8 13.8-9.5 5.9 37.9 1.1-1.2h2.2l-6.2-39.7 1.1-11h15l1.1 11-6.2 39.7h2.2l1.1 1.3 5.9-38 13.8 9.5 3.5.8h9.9l3.2-1.7 6-19.1zm-69 43.7h-11.2l-5.5-17.4 5.2-20.1 26.2 27.4s-14.7 10-14.7 10.1zm16-13.7-18.3-19.2 19.1 11.3s-.7 7.8-.8 7.9zm22.6-7.8 19.1-11.4-18.3 19.2s-.8-7.8-.8-7.8zm28 21.5h-11.2l-14.7-10 26.3-27.5 5.1 20.1z" fill="#ff5c16"/><g fill="#baf24a"><path d="m52.6 75.5h-9.2l-3.9 4.3 1.9 7.1h13.1l2-7.1zm-.8 8h-7.8l-.7-2.7 1.5-1.7h6.2l1.6 1.7s-.8 2.7-.8 2.7z"/><path d="m27 58.9v3.6l11.4 2.8 2-.8-.4-2.9-2.2-5.7h-7.8s-3 3-3 3zm2 1.5 2-2h5.1l1.6 4.1z"/></g></svg>