<svg fill="none" height="97" viewBox="0 0 96 97" width="96" xmlns="http://www.w3.org/2000/svg" xmlns:xlink="http://www.w3.org/1999/xlink"><clipPath id="a"><path d="m0 .027344h96v96h-96z"/></clipPath><g clip-path="url(#a)"><g fill="#ff5c16"><path d="m89.7127 90.8652-20.6783-6.1192-15.5944 9.2642-10.88-.0045-15.6034-9.2597-20.66928 6.1192-6.28732-21.0931 6.28732-23.4102-6.28732-19.7928 6.28732-24.53053 32.29748 19.17633h18.8304l32.2975-19.17633 6.2873 24.53053-6.2873 19.7928 6.2873 23.4102z"/><path d="m6.29004 2.03857 32.29746 19.18983-1.2845 13.1697z"/><path d="m26.9619 69.7817 14.2107 10.758-14.2107 4.207z"/><path d="m40.0366 51.9953-2.7313-17.5881-17.4828 11.9594-.009-.0045v.009l.0541 12.3102 7.0895-6.686h.0045z"/><path d="m89.7105 2.03857-32.2974 19.18983 1.28 13.1697z"/><path d="m69.0427 69.7817-14.2107 10.758 14.2107 4.207z"/><path d="m76.1873 46.3711h.0045-.0045v-.009l-.0045.0045-17.4828-11.9594-2.7312 17.5881h13.0749l7.0941 6.686z"/><path d="m26.9566 84.7467-20.66928 6.1191-6.28732-21.0841h26.9566z"/><path d="m40.0309 51.9912 3.9482 25.426-5.4715-14.1371-18.6502-4.5983 7.0941-6.6906h13.0749z"/><path d="m69.0439 84.7467 20.6693 6.1191 6.2874-21.0841h-26.9567z"/><path d="m55.9706 51.9912-3.9481 25.426 5.4715-14.1371 18.6502-4.5983-7.0986-6.6906z"/></g><path d="m0 69.772 6.28732-23.4102h13.52118l.0495 12.3148 18.6502 4.5984 5.4715 14.137-2.8124 3.1135-14.2107-10.758h-26.9566z" fill="#ff8d5d"/><path d="m96.0022 69.772-6.2873-23.4102h-13.5212l-.0495 12.3148-18.6502 4.5984-5.4715 14.137 2.8124 3.1135 14.2107-10.758h26.9566z" fill="#ff8d5d"/><path d="m57.4141 21.2163h-9.4152-9.4152l-1.28 13.1697 6.6749 43.014h8.0406l6.6794-43.014z" fill="#ff8d5d"/><path d="m6.28732 2.03857-6.28732 24.53053 6.28732 19.7928h13.52118l17.4918-11.9639z" fill="#661800"/><path d="m35.5937 55.7789h-7.4438l-4.0532 3.9479 14.4 3.5488-2.903-7.5022z" fill="#661800"/><path d="m89.7122 2.03857 6.2873 24.53053-6.2873 19.7928h-13.5211l-17.4919-11.9639z" fill="#661800"/><path d="m60.3827 55.7789h7.4462l4.0486 3.9489-14.4 3.5502 2.9052-7.5046z" fill="#661800"/><path d="m53.4377 85.6187 1.3972-5.0842-2.8124-3.1136h-8.0451l-2.8124 3.1136 1.3972 5.0842" fill="#661800"/><path d="m53.4351 85.6182v8.3958h-10.8755v-8.3958z" fill="#e7ebf6"/><path d="m26.9619 84.7377 15.6079 9.2732v-8.3958l-1.3972-5.0843z" fill="#e7ebf6"/><path d="m69.0425 84.7377-15.6079 9.2732v-8.3958l1.3972-5.0843z" fill="#e7ebf6"/></g></svg>