<svg width="1440" height="2280" viewBox="0 0 1440 2280" fill="none" xmlns="http://www.w3.org/2000/svg">
<g clip-path="url(#clip0_280_18403)">
<path fill-rule="evenodd" clip-rule="evenodd" d="M-44.2778 -135.545V-242H59.0688L167.078 -135.545V-242H379.991L162.415 -25.9824H59.0688L-44.2778 -135.545ZM-44.2739 -134.766H-255.629V396.727V397.508V608.082H-44.2739V400.623L167.074 608.086H-44.2777V819.441H167.078V608.089V608.086V504.743L274.309 614.306V664.036L379.987 614.306V509.405L274.309 400.619H170.963L379.988 190.045V720.164H592.224V404.931L380.744 186.453H592.222V398.686L806.019 610.922H1018.26V394.004L808.36 182.548H912.137L1018.26 73.3085V-32.0294L912.137 -81.9673V-32.0294L804.459 77.9902V-25.7812V-25.7871V-238.018H592.222V-25.7832H379.992V-25.9766H168.632L-44.2777 185.379V396.727H-254.873L-44.2739 179.159V-134.766ZM592.224 -25.7812H804.453L592.224 182.546V-25.7812ZM592.222 827.844V720.945L696 610.926H799.777L1018.26 827.844H804.675V1035.8H1016.9V1035.62H1228.26L1441.17 1246.97V1462.21L1229.82 1669.68H1441.17V1881.03H1229.81V1669.68V1669.68V1566.34L1122.58 1675.9V1725.63L1016.91 1675.9V1781.75H804.674V1466.52L1016.15 1248.04H804.675V1460.27L590.879 1672.51H378.638V1455.59L588.538 1244.13H484.76L378.642 1134.89V1029.56L484.76 979.619V1029.56L592.439 1139.58V1035.8V1035.8V827.844H592.222ZM804.459 720.945V823.568H700.337L804.459 720.945ZM592.445 1035.8H804.674V1244.13L592.445 1035.8ZM1018.26 -134.766H1229.62V179.159L1019.02 396.727H1229.61V185.379L1442.52 -25.9766H1653.88V190.041L1444.85 400.619H1548.2L1653.88 509.405V614.306L1548.2 664.036V614.306L1440.97 504.743V608.086V608.089V819.441H1229.61V608.086H1440.96L1229.62 400.623V608.082H1018.26V397.508V396.727V-134.766ZM1229.61 -135.545V-242H1332.96L1440.97 -135.545V-242H1653.88L1436.31 -25.9824H1332.96L1229.61 -135.545ZM-44.2739 1988.39H-255.629V2519.88V2520.66V2731.24H-44.2739V2523.78L167.078 2731.24H-44.2777V2942.6H167.078V2731.25V2731.24V2627.9L274.309 2737.46V2787.19L379.987 2737.46V2632.56L274.309 2523.78H170.963L379.988 2313.2V2843.32H592.224V2528.09L380.744 2309.61H592.222V2521.84L806.019 2734.08H1018.26V2517.16L808.36 2305.7H912.137L1018.26 2196.46V2091.13L912.137 2041.19V2091.13L804.459 2201.15V2097.38V2097.37V1889.43H804.675V1782.53L700.898 1672.51H597.121L378.638 1889.43H592.222V2097.37H379.992V2097.18H168.632L-44.2777 2308.53V2519.88H-254.873L-44.2739 2302.32V1988.39ZM592.439 1885.14H696.544L592.439 1782.53V1885.14ZM592.224 2097.38V2305.7L804.453 2097.38H592.224ZM-44.2778 1881.16V1987.61L59.0688 2097.17H162.415L379.991 1881.16H167.078V1987.61L59.0688 1881.16H-44.2778ZM592.222 2844.1V2951H696L804.459 2844.1V2951H1018.26L799.777 2734.08H696L592.222 2844.1ZM1229.62 1988.39H1018.26V2519.88V2520.66V2731.24H1229.62V2523.78L1440.97 2731.24H1229.61V2942.6H1440.97V2731.25V2731.24V2627.9L1548.2 2737.46V2787.19L1653.88 2737.46V2632.56L1548.2 2523.78H1444.85L1653.88 2313.2V2097.18H1442.52L1229.61 2308.53V2519.88H1019.02L1229.62 2302.32V1988.39ZM1229.61 1881.16V1987.61L1332.96 2097.17H1436.31L1653.88 1881.16H1440.97V1987.61L1332.96 1881.16H1229.61ZM1652.53 926.828H1441.17V1240.75L1651.77 1458.32H1441.17V1669.68H1652.53V1459.1V1458.32V926.828ZM1441.17 926.048V819.594H1337.82L1229.81 926.048V819.594H1016.9L1234.47 1035.61H1337.82L1441.17 926.048ZM1122.58 1462.21L1016.91 1570.99V1251.65L1225.93 1462.21H1122.58ZM378.629 926.828H167.273V1240.75L377.872 1458.32H167.277V1246.97L-45.6324 1035.62H-256.992V1251.63L-47.9635 1462.21H-151.31L-256.988 1571V1675.9L-151.31 1725.63V1675.9L-44.0783 1566.34V1669.68V1669.68V1881.03H167.277V1669.68H-44.0747L167.273 1462.22V1669.68H378.629V1459.1V1458.32V926.828ZM167.277 926.048V819.594H63.9305L-44.0782 926.048V819.594H-256.992L-39.416 1035.61H63.9305L167.277 926.048Z" fill="#F7F9FC"/>
</g>
<defs>
<clipPath id="clip0_280_18403">
<rect width="1440" height="2280" fill="white"/>
</clipPath>
</defs>
</svg>
